HIERARCHY
ROOT root
{
	OFFSET	0	13.1	24.9
	CHANNELS 6  Xposition Yposition Zposition Xrotation Yrotation Zrotation
	JOINT spine_1
	{
		OFFSET	0	9.99999	0
		CHANNELS 3  Xrotation Yrotation Zrotation
		JOINT spine_2
		{
			OFFSET	0	112	-10
			CHANNELS 3  Xrotation Yrotation Zrotation
			JOINT spine_3
			{
				OFFSET	0	206.5	19.3
				CHANNELS 3  Xrotation Yrotation Zrotation
				JOINT spine_4
				{
					OFFSET	0	110.4	14.6
					CHANNELS 3  Xrotation Yrotation Zrotation
					JOINT neck_1
					{
						OFFSET	0	71.8	-50.3
						CHANNELS 3  Xrotation Yrotation Zrotation
						JOINT neck_2
						{
							OFFSET	0	86.2	-25.8
							CHANNELS 3  Xrotation Yrotation Zrotation
							JOINT head_ee
							{
								OFFSET	0	179.8	-8.7
								CHANNELS 3  Xrotation Yrotation Zrotation
								End Site
								{
									OFFSET	1	0	0
								}
							}
						}
					}
					JOINT left_clavicle
					{
						OFFSET	-43.2	22.4	-70.8
						CHANNELS 3  Xrotation Yrotation Zrotation
						JOINT left_shoulder
						{
							OFFSET	-93.9	-5.79999	48.7
							CHANNELS 3  Xrotation Yrotation Zrotation
							JOINT left_elbow
							{
								OFFSET	-291.4	-30.8	15.2
								CHANNELS 3  Xrotation Yrotation Zrotation
								JOINT left_lowarm_twist
								{
									OFFSET	-110.7	-3.89999	13.6
									CHANNELS 3  Xrotation Yrotation Zrotation
									JOINT left_hand
									{
										OFFSET	-110.7	-3.89999	13.6
										CHANNELS 3  Xrotation Yrotation Zrotation
										JOINT left_ee
										{
											OFFSET	-80.8	-5.10001	12.1
											CHANNELS 3  Xrotation Yrotation Zrotation
											End Site
											{
												OFFSET	1	0	0
											}
										}
									}
								}
							}
						}
					}
					JOINT right_clavicle
					{
						OFFSET	43.2	22.4	-70.8
						CHANNELS 3  Xrotation Yrotation Zrotation
						JOINT right_shoulder
						{
							OFFSET	93.9	-5.79999	48.7
							CHANNELS 3  Xrotation Yrotation Zrotation
							JOINT right_elbow
							{
								OFFSET	291.4	-30.8	15.2
								CHANNELS 3  Xrotation Yrotation Zrotation
								JOINT right_lowarm_twist
								{
									OFFSET	110.7	-3.89999	13.6
									CHANNELS 3  Xrotation Yrotation Zrotation
									JOINT right_hand
									{
										OFFSET	110.7	-3.89999	13.6
										CHANNELS 3  Xrotation Yrotation Zrotation
										JOINT right_ee
										{
											OFFSET	80.8	-5.10001	12.1
											CHANNELS 3  Xrotation Yrotation Zrotation
											End Site
											{
												OFFSET	1	0	0
											}
										}
									}
								}
							}
						}
					}
				}
			}
		}
	}
	JOINT left_hip
	{
		OFFSET	-82.8	-127.5	0.300001
		CHANNELS 3  Xrotation Yrotation Zrotation
		JOINT left_knee
		{
			OFFSET	-28.2	-396.7	2.2
			CHANNELS 3  Xrotation Yrotation Zrotation
			JOINT left_ankle
			{
				OFFSET	-11.7	-411.3	35.4
				CHANNELS 3  Xrotation Yrotation Zrotation
				JOINT left_toes
				{
					OFFSET	0	-60	-88.6
					CHANNELS 3  Xrotation Yrotation Zrotation
					JOINT left_foot_ee
					{
						OFFSET	-22.5	-16.5	-42.2
						CHANNELS 3  Xrotation Yrotation Zrotation
						End Site
						{
							OFFSET	1	0	0
						}
					}
				}
			}
		}
	}
	JOINT right_hip
	{
		OFFSET	82.8	-127.5	0.300001
		CHANNELS 3  Xrotation Yrotation Zrotation
		JOINT right_knee
		{
			OFFSET	28.2	-396.7	2.2
			CHANNELS 3  Xrotation Yrotation Zrotation
			JOINT right_ankle
			{
				OFFSET	11.7	-411.3	35.4
				CHANNELS 3  Xrotation Yrotation Zrotation
				JOINT right_toes
				{
					OFFSET	0	-60	-88.6
					CHANNELS 3  Xrotation Yrotation Zrotation
					JOINT right_foot_ee
					{
						OFFSET	22.5	-16.5	-42.2
						CHANNELS 3  Xrotation Yrotation Zrotation
						End Site
						{
							OFFSET	1	0	0
						}
					}
				}
			}
		}
	}
}
MOTION
Frames: 9
Frame Time: 0.02
1372.05 701.618 -1475.22 -8.91569663997 21.9530893923 -5.57280210809 3.87488 0.379341 2.92827 3.87963 0.192322 2.94645 3.88692 -0.232365 2.94357 3.87491 0.235227 2.94334 -6.24254 10.1949 0.506914 -6.2145 18.5094 2.46753 -0.0 0.0 -0.0 1.35882 10.6562 3.58163 -0.97412 -46.4632 63.489 1.68032 -39.7701 0.607808 -72.0851 -6.81234 5.3161 -9.39222 30.7699 -42.1285 -0.0 0.0 -0.0 8.03622 -8.67035 -15.3284 -19.5069 -9.13335 -65.8797 0.995419 26.2474 -0.232081 70.2732 2.76876 7.96932 -1.62591 -10.8958 5.86523 0.0 0.0 0.0 4.34956 12.0758 15.4265 -27.506 0.131482 4.1787 6.49986 12.8798 -0.937771 35.1082 -0.0 -0.0 -0.0 0.0 -0.0 34.8062 24.8382 2.63331 -8.161 -0.248995 -1.22666 -8.619 6.84796 -1.33098 38.16 -0.0 -0.0 0.0 0.0 0.0 
1363.66955525 702.152 -1500.86349248 -8.74222419083 24.5918707258 -5.59450732794 3.81491 0.490759 3.0161 3.81992 0.297933 3.04118 3.83308 -0.144174 3.05233 3.82024 0.339466 3.03683 -5.18199 10.5369 0.628356 -5.11268 18.9381 2.49122 -0.0 0.0 -0.0 1.56891 9.17057 3.82002 -5.31366 -51.3699 60.5169 1.39491 -34.6425 0.435053 -75.8014 -7.28723 5.31654 -8.89131 30.3957 -38.8465 -0.0 0.0 -0.0 7.98404 -7.33729 -15.3054 -17.5326 -9.07563 -67.7294 1.03753 27.2008 -0.25102 73.4187 3.10261 8.19613 -2.21318 -10.4208 9.87932 0.0 0.0 0.0 4.91302 12.258 14.918 -30.5356 0.0231809 4.63098 3.17604 19.7824 -0.470501 35.3062 -0.0 -0.0 -0.0 0.0 -0.0 33.729 24.6921 2.60621 -9.46359 -0.272461 -1.42516 -6.06394 5.69214 -0.927326 39.5402 -0.0 -0.0 0.0 0.0 0.0 
1363.94297494 702.152 -1500.95123988 -8.70048945963 23.9890640459 -5.6959607239 3.81491 0.490759 3.0161 3.81992 0.297933 3.04118 3.83308 -0.144174 3.05233 3.82024 0.339466 3.03683 -5.18199 10.5369 0.628356 -5.11268 18.9381 2.49122 -0.0 0.0 -0.0 1.56891 9.17057 3.82002 -5.31366 -51.3699 60.5169 1.39491 -34.6425 0.435053 -75.8014 -7.28723 5.31654 -8.89131 30.3957 -38.8465 -0.0 0.0 -0.0 7.98404 -7.33729 -15.3054 -17.5326 -9.07563 -67.7294 1.03753 27.2008 -0.25102 73.4187 3.10261 8.19613 -2.21318 -10.4208 9.87932 0.0 0.0 0.0 4.91302 12.258 14.918 -30.5356 0.0231809 4.63098 3.17604 19.7824 -0.470501 35.3062 -0.0 -0.0 -0.0 0.0 -0.0 33.729 24.6921 2.60621 -9.46359 -0.272461 -1.42516 -6.06394 5.69214 -0.927326 39.5402 -0.0 -0.0 0.0 0.0 0.0 
1364.1774326 702.152 -1501.02393853 -8.66588863528 23.4737122107 -5.78193544306 3.81491 0.490759 3.0161 3.81992 0.297933 3.04118 3.83308 -0.144174 3.05233 3.82024 0.339466 3.03683 -5.18199 10.5369 0.628356 -5.11268 18.9381 2.49122 -0.0 0.0 -0.0 1.56891 9.17057 3.82002 -5.31366 -51.3699 60.5169 1.39491 -34.6425 0.435053 -75.8014 -7.28723 5.31654 -8.89131 30.3957 -38.8465 -0.0 0.0 -0.0 7.98404 -7.33729 -15.3054 -17.5326 -9.07563 -67.7294 1.03753 27.2008 -0.25102 73.4187 3.10261 8.19613 -2.21318 -10.4208 9.87932 0.0 0.0 0.0 4.91302 12.258 14.918 -30.5356 0.0231809 4.63098 3.17604 19.7824 -0.470501 35.3062 -0.0 -0.0 -0.0 0.0 -0.0 33.729 24.6921 2.60621 -9.46359 -0.272461 -1.42516 -6.06394 5.69214 -0.927326 39.5402 -0.0 -0.0 0.0 0.0 0.0 
1351.47055194 702.438 -1531.68708122 -9.08285921264 26.3978659486 -5.70363097194 3.45113 0.697574 3.35961 3.45728 0.482506 3.39713 3.4833 -0.0336154 3.43102 3.46723 0.508355 3.39336 -3.75343 11.5513 2.2077 -3.62409 19.4206 4.06049 -0.0 0.0 -0.0 2.69252 8.55593 5.74567 -7.32836 -51.9207 61.0023 0.93625 -24.8811 0.206547 -74.2784 -7.09267 5.32011 -8.10054 29.9397 -33.825 -0.0 0.0 -0.0 8.69217 -6.9367 -16.6616 -17.4357 -9.06375 -70.3137 1.0379 27.2092 -0.25119 73.9254 3.15754 8.23095 -2.42455 -8.58786 12.18 0.0 0.0 0.0 6.41966 12.6102 14.2906 -32.8719 -0.0766051 4.97558 5.99949 27.4889 -0.915627 37.6401 -0.0 -0.0 -0.0 0.0 -0.0 33.3455 24.2426 2.86371 -12.5224 -0.309782 -1.89296 -0.227496 5.71194 -0.0343502 40.162 -0.0 -0.0 0.0 0.0 0.0 
1352.46699169 702.438 -1532.04033729 -9.0059226852 25.4025117132 -5.87975903722 3.45113 0.697574 3.35961 3.45728 0.482506 3.39713 3.4833 -0.0336154 3.43102 3.46723 0.508355 3.39336 -3.75343 11.5513 2.2077 -3.62409 19.4206 4.06049 -0.0 0.0 -0.0 2.69252 8.55593 5.74567 -7.32836 -51.9207 61.0023 0.93625 -24.8811 0.206547 -74.2784 -7.09267 5.32011 -8.10054 29.9397 -33.825 -0.0 0.0 -0.0 8.69217 -6.9367 -16.6616 -17.4357 -9.06375 -70.3137 1.0379 27.2092 -0.25119 73.9254 3.15754 8.23095 -2.42455 -8.58786 12.18 0.0 0.0 0.0 6.41966 12.6102 14.2906 -32.8719 -0.0766051 4.97558 5.99949 27.4889 -0.915627 37.6401 -0.0 -0.0 -0.0 0.0 -0.0 33.3455 24.2426 2.86371 -12.5224 -0.309782 -1.89296 -0.227496 5.71194 -0.0343502 40.162 -0.0 -0.0 0.0 0.0 0.0 
1325.87657318 715.199 -1573.71671475 -7.2789213849 26.4609464702 -8.23138276542 2.49492 0.380098 3.47296 2.50162 0.158472 3.49008 2.51009 -0.427576 3.46744 2.49333 0.125063 3.49144 -1.50651 13.9805 2.16885 -1.19177 23.4948 3.98911 -0.0 0.0 -0.0 3.00267 8.18484 6.27328 -9.85249 -52.9853 62.6818 0.600759 -16.5731 0.0874978 -74.2403 -7.08781 5.32014 -7.57052 29.5101 -30.7731 -0.0 0.0 -0.0 8.92427 -7.89865 -17.0334 -18.0713 -8.70543 -71.9079 1.2566 31.9003 -0.359155 72.7545 3.03109 8.14977 -2.30638 -10.3702 10.5104 0.0 0.0 0.0 7.5287 18.9675 15.3465 -35.1097 -0.185312 5.30167 24.2896 27.6149 -3.47537 39.1073 -0.0 -0.0 -0.0 0.0 -0.0 28.8809 25.5957 4.9203 -15.9281 -0.321901 -2.41528 4.1819 7.58597 0.629162 40.1298 -0.0 -0.0 0.0 0.0 0.0 
1310.38968205 720.705 -1599.37668349 -5.87951927718 23.6819605583 -9.98595866406 1.99608 0.538543 3.73576 2.0038 0.299908 3.76241 2.02328 -0.365463 3.75662 2.00367 0.231977 3.7672 -2.15856 14.5311 1.89389 -1.84391 24.8368 3.87938 -0.0 0.0 -0.0 2.79559 9.1552 5.96034 -10.5058 -50.4882 64.9045 0.481233 -13.4086 0.0565688 -72.0578 -6.80886 5.31598 -7.30462 29.2553 -29.3171 -0.0 0.0 -0.0 9.16303 -7.46495 -17.5177 -17.9722 -4.80536 -71.3894 1.35479 33.8646 -0.412468 71.5314 2.90081 8.06223 -2.1863 -9.56441 10.1276 0.0 0.0 0.0 8.05552 18.0587 15.52 -36.4495 -0.256472 5.49482 22.2363 27.6558 -3.21122 40.1457 -0.0 -0.0 -0.0 0.0 -0.0 27.6734 26.5341 4.45637 -18.8659 -0.307409 -2.86575 3.11746 8.4738 0.472663 40.1555 -0.0 -0.0 0.0 0.0 0.0 
1314.72260757 720.705 -1601.43587436 -5.79516779293 21.7093266018 -10.2045461512 1.99608 0.538543 3.73576 2.0038 0.299908 3.76241 2.02328 -0.365463 3.75662 2.00367 0.231977 3.7672 -2.15856 14.5311 1.89389 -1.84391 24.8368 3.87938 -0.0 0.0 -0.0 2.79559 9.1552 5.96034 -10.5058 -50.4882 64.9045 0.481233 -13.4086 0.0565688 -72.0578 -6.80886 5.31598 -7.30462 29.2553 -29.3171 -0.0 0.0 -0.0 9.16303 -7.46495 -17.5177 -17.9722 -4.80536 -71.3894 1.35479 33.8646 -0.412468 71.5314 2.90081 8.06223 -2.1863 -9.56441 10.1276 0.0 0.0 0.0 8.05552 18.0587 15.52 -36.4495 -0.256472 5.49482 22.2363 27.6558 -3.21122 40.1457 -0.0 -0.0 -0.0 0.0 -0.0 27.6734 26.5341 4.45637 -18.8659 -0.307409 -2.86575 3.11746 8.4738 0.472663 40.1555 -0.0 -0.0 0.0 0.0 0.0 
